<svg viewBox="0 0 860 267" xmlns="http://www.w3.org/2000/svg" fill-rule="evenodd" clip-rule="evenodd" stroke-linejoin="round" stroke-miterlimit="1.414"><path d="M263.379 12.011L10.992 264.397a6.44 6.44 0 11-9.107-9.107L254.272 2.904a6.44 6.44 0 119.107 9.107zm-149.317 93.871L11.063 2.883a6.474 6.474 0 00-9.155 9.155l102.999 102.999a6.472 6.472 0 009.155 0 6.472 6.472 0 000-9.155zm38.329 56.64l101.853 101.853a6.475 6.475 0 009.156 0 6.473 6.473 0 000-9.154L161.547 153.366a6.475 6.475 0 00-9.156 9.156zm433.065 92.511L459.088 128.664a5.829 5.829 0 00-8.241 0L324.479 255.033c-2.465 2.464-2.83 6.522-.496 9.112a6.438 6.438 0 009.345.251l121.639-121.638 121.64 121.638a6.437 6.437 0 009.344-.251c2.334-2.59 1.972-6.646-.495-9.112zm-263.307-46.135V7.426a6.438 6.438 0 016.439-6.438 6.44 6.44 0 016.44 6.438v201.472a6.44 6.44 0 11-12.879 0zm252.572 0V7.426a6.44 6.44 0 016.44-6.438 6.438 6.438 0 016.439 6.438v201.472a6.44 6.44 0 11-12.879 0zm87.086 50.946v-93.556a6.44 6.44 0 1112.879 0v93.556a6.439 6.439 0 01-6.44 6.439 6.438 6.438 0 01-6.439-6.439zM774.736.987H668.247a6.442 6.442 0 00-6.441 6.442v115.246a6.44 6.44 0 0012.879 0V13.865l100.032.058.019-.001c39.883 0 72.329 32.447 72.329 72.329 0 39.883-32.446 72.331-72.329 72.331l-58.391.033a6.45 6.45 0 10.004 12.901h56.984c46.758 0 85.876-37.055 86.655-83.807.798-47.757-37.677-86.722-85.252-86.722z" fill="#414757" fill-rule="nonzero"/></svg>