<svg version="1" xmlns="http://www.w3.org/2000/svg" width="1333.333" height="1333.333" viewBox="0 0 1000.000000 1000.000000"><path d="M50 499.5V670h42.8c37.4 0 42.9-.2 43-1.5.1-.8.2-3 .2-4.8 0-1.7 0-6.1.1-9.7v-7.5c-.2-5.2-.2-9.2-.1-10 .1-.6.1-3 .1-5.5-.3-11.3-.2-15 .4-16 .3-.5.3-1-.2-1-.4 0-.8-2.9-.8-6.5s.4-6.5.8-6.5c.5 0 .5-.5.2-1.1-.8-1.2-1-12.2-.3-13.5.2-.5.3-2 .1-3.4-.6-4.5-.5-14.9.2-16 .3-.5.3-1-.2-1-.4 0-.8-2.9-.8-6.5 0-5.8.2-6.5 2-6.5 1.1-.1 18-.3 37.5-.5s36.9-.6 38.5-.9c1.7-.2 4.6-.7 6.5-.9 15.3-2.3 15.9-2.6 18.6-9.2 1.4-3.3 2.4-6.1 2.4-6.3-.1-.2 9.6-31.3 10.8-34.2.3-.8.6-1.7.7-2 .1-.3.4-1.2.8-2 1-2.6 14.7-45.6 14.7-46.2 0-.4.5-1.9 1.2-3.5.6-1.5 1.2-3.3 1.4-3.8.2-1.1 10.8-33.7 17.1-53.1 4.5-13.6 4.7-12.2-3.2-21.9-5.2-6.5-12.7-13.7-17.9-17.2-2.3-1.5-4.3-3-4.6-3.3-3-3.3-28.1-13.3-36.6-14.6-2.1-.3-5.7-1-7.9-1.5-2.2-.4-5.9-.9-8.2-.9-2.4 0-4.3-.5-4.3-1 0-.6-.5-1-1.1-1-.5 0-.8.4-.5.8.3.5-.1.9-.9.9s-1.2-.4-.9-.9c.3-.4-.1-.8-1-.8-.8 0-1.7.6-1.9 1.2-.4 1-.6 1-.6 0-.1-.9-15.6-1.2-74.1-1.2H50v170.5zm130-103.1c13.5 1.6 21.6 4.5 28.1 10.4 8.9 8 12.9 17.4 13.5 31.7.4 11.2-.9 18.3-4.7 26-5.2 10.7-12.2 16.2-25.2 19.7-6 1.7-11.3 2.1-30.9 2.4-14.2.3-23.9.1-24.2-.5-.6-.8-.7-2.2-.6-7.6v-10.8c0-4.9.3-9.3.6-9.8s-.1-.9-.8-1c-.8 0-.9-.2-.2-.5.8-.3.9-1.6.4-3.8-.4-1.9-.4-4 .1-4.7.4-.7.5-1.7.2-2.3-.8-1.2-.5-18.5.3-19.7.3-.5-.1-.9-.8-1-.8 0-.9-.2-.2-.5.8-.3.9-1.6.4-3.8-.4-1.9-.4-4 .1-4.7.4-.7.5-1.7.2-2.1-.5-.9-.6-4.7-.4-13.8l.1-4.5 19.2.1c10.6.1 21.8.5 24.8.8zM448.5 330.2c-.2.7-3.9 11.9-8 24.8-4.2 12.9-8.7 26.6-10 30.5-1.3 3.8-7.4 22.5-13.5 41.5s-11.4 35.2-11.7 36c-.3.8-.7 1.9-.8 2.5-.5 1.9-8.7 27-9.5 29-.5 1.1-4.1 12.1-8 24.5-8.7 27.5-9.3 29-10 29-.3 0-2.1-3.3-4.1-7.3-12-24.3-44.3-88.4-45.2-89.5-.7-.9-2.6 3.8-6.9 17-3.3 10.1-9.8 30-14.4 44.3-4.7 14.3-11 33.9-14.1 43.5-3.1 9.6-6.8 21.2-8.3 25.6l-2.8 8.1 22.9 39.2c12.6 21.6 22.9 39.6 22.9 40.2 0 .5 17.7.9 44.9.9h44.9l.7-3.3c.4-1.7 1-3.7 1.3-4.2.4-.6.7-1.5.9-2 .1-.6 3.1-10 6.8-21 3.6-11 12.7-38.7 20.2-61.5 7.5-22.8 18-55 23.4-71.5 5.5-16.5 9.9-30.6 9.9-31.2 0-2.4 2-1.3 2.6 1.4.4 1.6 2.1 7.3 3.9 12.8 1.8 5.5 3.9 12 4.6 14.5 1.5 5.5 1.4 5.2 2.2 7 .3.8 1.2 3.7 2.1 6.5 2.9 9.6 11.7 38 12.6 40.5 1 2.9 7.3 23 7.6 24.5.4 1.8 7.5 25 8.1 26.5.3.8.7 1.9.9 2.5.1.5 3 9.8 6.4 20.5 3.4 10.7 6.3 19.9 6.5 20.5.1.5.5 1.7.8 2.5.3.8 1.5 4.4 2.5 8l2 6.5 44.5.3 44.5.2 2.2-5.7c1.3-3.2 2.9-7.2 3.6-8.8.7-1.7 2.9-7.1 4.9-12 1.9-5 4-9.9 4.5-11 .4-1.1 5.4-13.5 11-27.5s10.8-26.9 11.6-28.7c.8-1.7 1.4-3.4 1.4-3.8 0-.3.8-2.5 1.9-4.8 1-2.3 10-24.7 20.1-49.7 10-25 18.8-46.8 19.6-48.4.8-1.6 1.4-3.3 1.4-3.8 0-.4.9-2.7 1.9-5.1 1.1-2.3 2.9-6.5 3.9-9.2 1.7-4.5 38.8-96.6 46-114.2 1.6-4 2.7-7.5 2.4-7.8-.3-.3-20.6-.5-45.2-.5h-44.6l-3.9 9.2c-2.1 5.1-4.6 11.1-5.6 13.3-1 2.2-4.3 10.1-7.4 17.5-3.2 7.4-6.5 15.3-7.5 17.5-1 2.2-3 6.9-4.5 10.5-1.4 3.6-3.5 8.5-4.6 10.9-1.1 2.4-2.9 6.7-4 9.5s-2.7 6.4-3.4 8.1c-5.5 12-7.3 16.5-6.8 16.5.3 0 .1.6-.5 1.2-.5.7-2.2 4.2-3.7 7.8-1.5 3.6-3.5 8.3-4.5 10.5-.9 2.2-3.4 8-5.5 13-2.1 4.9-4.9 11.4-6.2 14.3-1.2 2.9-2.3 5.4-2.3 5.6 0 .2-1 2.5-2.2 5.2-1.2 2.7-2.3 5.1-2.3 5.4-.1.3-.9 2.3-1.9 4.5-1 2.2-2.6 6.1-3.6 8.6-2 5-4.5 10.6-9.1 20.7-1.6 3.5-2.9 6.9-2.9 7.7 0 .8-.4 1.5-1 1.5-.5 0-1-.2-1-.4s-2.3-7.9-5.1-17.2c-2.8-9.3-6.4-21.2-7.9-26.4-1.6-5.2-4.1-13.3-5.5-18-2.5-8-5.3-17.3-5.9-19.5-.1-.6-.8-3-1.5-5.5s-2.2-7.2-3.3-10.5c-1.1-3.3-2.1-6.5-2.3-7-.1-.6-.4-1.7-.7-2.5-.3-.8-1.1-3.5-1.8-6-1.9-6.9-3.2-11.3-3.8-13-.3-.8-.6-2-.8-2.5-.2-.6-2.8-9.3-5.9-19.5-7.5-24.5-7.5-24.4-7.4-25 0-.3-.5-1.9-1.1-3.5-.7-1.7-1.3-3.7-1.5-4.5-.2-.8-1.4-5.1-2.8-9.5s-4-12.6-5.7-18.3l-3.1-10.2h-34.5c-26.7 0-34.6.3-34.9 1.2zM821 332.5c0 .8-.8 3.4-1.9 5.8-1 2.3-3.3 7.8-5 12.2-1.7 4.4-3.6 9.3-4.2 11-.7 1.6-1.3 3.2-1.4 3.5-.1.3-.5 1.4-1 2.5s-5.1 12.8-10.2 26c-5.2 13.2-9.8 24.9-10.3 26-3.8 8.1-8.9 23.2-8.4 25 .6 2 2 6.1 11.4 32.5 5 14 7.2 20.2 12.4 34.7 4.9 13.6 9.5 26.8 10 28.8.6 2 .3 2-36 2-20.1 0-37 .3-37.6.6-.6.4-2.7 5.1-4.8 10.5-2.1 5.5-7.5 19.1-12 30.4-4.5 11.3-8.4 21.4-8.7 22.5-.4 2 0 2 59.8 2h60.2l1.6 3c.9 1.7 1.7 3.5 1.8 4 .3 1.5 4.3 12.7 5.3 15 .5 1.1 2.3 6 4 11 1.7 4.9 4.7 13.3 6.5 18.5l3.3 9.5 47.1.3c25.9.1 47.1 0 47.1-.2 0-.5-4.8-13.5-5.9-16.1-1.4-3-6.3-15.9-6.6-17-.2-.9-.6-2.2-2.2-6.3-.3-.9-.7-1.9-.8-2.2-.1-.3-.5-1.2-.8-2-.3-.8-1.6-4.2-2.7-7.5-1.2-3.3-2.6-6.9-3.1-8-.5-1.1-2.2-5.8-3.9-10.5-1.7-4.7-3.4-9.4-3.9-10.5-.5-1.1-1.6-3.8-2.4-6-.8-2.2-2.7-7.2-4.2-11-1.5-3.9-2.8-7.5-3-8-.2-1.1-1.3-4-2.5-7-2-4.8-6.4-16.6-8.7-23-1.4-3.9-3.8-10.4-5.3-14.5-3.4-8.9-9.5-25.1-15.5-41-2.4-6.3-4.7-12.4-5.1-13.5-.4-1.1-.8-2.2-.9-2.5-.1-.3-.5-1.2-.8-2-.4-.8-6.5-17.3-13.7-36.5-7.2-19.3-14.4-38.4-16-42.5-2.6-6.8-12.4-32.7-17.1-45.5-1.1-2.7-1.9-5.1-1.9-5.2 0-.2-.4-.3-1-.3-.5 0-1 .7-1 1.5z"/></svg>